<?xml version="1.0" encoding="UTF-8" standalone="no"?>
<!-- Created with Inkscape (http://www.inkscape.org/) -->

<svg
   xmlns:dc="http://purl.org/dc/elements/1.1/"
   xmlns:cc="http://creativecommons.org/ns#"
   xmlns:rdf="http://www.w3.org/1999/02/22-rdf-syntax-ns#"
   xmlns:svg="http://www.w3.org/2000/svg"
   xmlns="http://www.w3.org/2000/svg"
   xmlns:sodipodi="http://sodipodi.sourceforge.net/DTD/sodipodi-0.dtd"
   xmlns:inkscape="http://www.inkscape.org/namespaces/inkscape"
   id="svg6328"
   version="1.1"
   inkscape:version="0.48.4 r9939"
   width="1488.1889"
   height="1052.3622"
   xml:space="preserve"
   sodipodi:docname="servo_mount.svg"><metadata
     id="metadata6334"><rdf:RDF><cc:Work
         rdf:about=""><dc:format>image/svg+xml</dc:format><dc:type
           rdf:resource="http://purl.org/dc/dcmitype/StillImage" /><dc:title></dc:title></cc:Work></rdf:RDF></metadata><defs
     id="defs6332" /><sodipodi:namedview
     pagecolor="#ffffff"
     bordercolor="#666666"
     borderopacity="1"
     objecttolerance="10"
     gridtolerance="10"
     guidetolerance="10"
     inkscape:pageopacity="0"
     inkscape:pageshadow="2"
     inkscape:window-width="1366"
     inkscape:window-height="744"
     id="namedview6330"
     showgrid="true"
     inkscape:zoom="4"
     inkscape:cx="127.81341"
     inkscape:cy="928.04657"
     inkscape:window-x="0"
     inkscape:window-y="24"
     inkscape:window-maximized="1"
     inkscape:current-layer="g6336"
     showguides="true"
     inkscape:guide-bbox="true"><inkscape:grid
       type="xygrid"
       id="grid6514" /><sodipodi:guide
       orientation="1,0"
       position="135,930"
       id="guide7227" /><sodipodi:guide
       orientation="0,1"
       position="135,930"
       id="guide7229" /></sodipodi:namedview><g
     id="g6336"
     inkscape:groupmode="layer"
     inkscape:label="servo_mount"
     transform="matrix(1.25,0,0,-1.25,0,1052.3622)"><path
       inkscape:connector-curvature="0"
       id="path6340"
       style="fill:#666666;fill-opacity:1;fill-rule:nonzero;stroke:none"
       d="m 113.24579,688.71963 c 0,-2.895 -2.352,-5.242 -5.246,-5.242 -2.895,0 -5.242,2.347 -5.242,5.242 0,2.898 2.347,5.246 5.242,5.246 2.894,0 5.246,-2.348 5.246,-5.246 z" /><g
       transform="matrix(1,0,0,-1,-1.512209,843.1764)"
       id="g6342"><path
         inkscape:connector-curvature="0"
         id="path6344"
         style="fill:none;stroke:#000000;stroke-width:0.28558201;stroke-linecap:butt;stroke-linejoin:miter;stroke-miterlimit:4;stroke-opacity:1;stroke-dasharray:none"
         d="m 173.148,99.18 c 0,35.148 -28.492,63.636 -63.636,63.636 -35.145,0 -63.637,-28.488 -63.637,-63.636 0,-35.145 28.492,-63.637 63.637,-63.637 35.144,0 63.636,28.492 63.636,63.637 z" /></g><g
       transform="matrix(0.75,0,0,-1,-1.512209,843.1764)"
       id="g6346"><path
         inkscape:connector-curvature="0"
         id="path6348"
         style="fill:none;stroke:#000000;stroke-width:0.31577599;stroke-linecap:butt;stroke-linejoin:miter;stroke-miterlimit:4;stroke-opacity:1;stroke-dasharray:none"
         d="m 149.422,154.457 c 0,1.41 -1.526,2.555 -3.406,2.555 -1.881,0 -3.407,-1.145 -3.407,-2.555 0,-1.41 1.526,-2.555 3.407,-2.555 1.88,0 3.406,1.145 3.406,2.555 z" /></g><path
       inkscape:connector-curvature="0"
       id="path6350"
       style="fill:#666666;fill-opacity:1;fill-rule:nonzero;stroke:none"
       d="m 150.79279,708.61763 c 2.05,-2.047 2.05,-5.367 0,-7.418 -2.047,-2.047 -5.367,-2.047 -7.414,0 -2.051,2.051 -2.051,5.371 0,7.418 2.047,2.047 5.367,2.047 7.414,0 z" /><g
       transform="matrix(0.75,0.75,1,-1,-1.512209,843.1764)"
       id="g6352"><path
         inkscape:connector-curvature="0"
         id="path6354"
         style="fill:none;stroke:#000000;stroke-width:0.223287;stroke-linecap:butt;stroke-linejoin:miter;stroke-miterlimit:4;stroke-opacity:1;stroke-dasharray:none"
         d="m 9.297,143.434 c 0,0.996 -1.078,1.804 -2.409,1.806 -1.333,0 -2.411,-0.808 -2.411,-1.808 0.002,-0.998 1.08,-1.807 2.408,-1.807 1.334,0 2.412,0.809 2.412,1.809 z" /></g><path
       inkscape:connector-curvature="0"
       id="path6356"
       style="fill:#666666;fill-opacity:1;fill-rule:nonzero;stroke:none"
       d="m 163.27679,749.23863 c 2.895,0 5.242,-2.347 5.242,-5.242 0,-2.898 -2.347,-5.246 -5.242,-5.246 -2.898,0 -5.246,2.348 -5.246,5.246 0,2.895 2.348,5.242 5.246,5.242 z" /><g
       transform="matrix(0,0.75,1,0,-1.512209,843.1764)"
       id="g6358"><path
         inkscape:connector-curvature="0"
         id="path6360"
         style="fill:none;stroke:#000000;stroke-width:0.31577599;stroke-linecap:butt;stroke-linejoin:miter;stroke-miterlimit:4;stroke-opacity:1;stroke-dasharray:none"
         d="m -128.833,164.789 c 0,1.41 -1.526,2.555 -3.407,2.555 -1.885,0 -3.411,-1.145 -3.411,-2.555 0,-1.414 1.526,-2.559 3.411,-2.559 1.881,0 3.407,1.145 3.407,2.559 z" /></g><path
       inkscape:connector-curvature="0"
       id="path6362"
       style="fill:#666666;fill-opacity:1;fill-rule:nonzero;stroke:none"
       d="m 143.37879,786.78963 c 2.047,2.047 5.367,2.047 7.414,0 2.05,-2.047 2.05,-5.367 0,-7.418 -2.047,-2.047 -5.367,-2.047 -7.414,0 -2.051,2.051 -2.051,5.371 0,7.418 z" /><g
       transform="matrix(-0.75,0.75,1,1,-1.512209,843.1764)"
       id="g6364"><path
         inkscape:connector-curvature="0"
         id="path6366"
         style="fill:none;stroke:#000000;stroke-width:0.223287;stroke-linecap:butt;stroke-linejoin:miter;stroke-miterlimit:4;stroke-opacity:1;stroke-dasharray:none"
         d="m -136.719,44.25 c 0,1 -1.078,1.809 -2.411,1.809 -1.328,0 -2.409,-0.811 -2.409,-1.807 0,-1 1.078,-1.809 2.411,-1.809 1.329,0 2.409,0.811 2.409,1.807 z" /></g><path
       inkscape:connector-curvature="0"
       id="path6368"
       style="fill:#666666;fill-opacity:1;fill-rule:nonzero;stroke:none"
       d="m 102.75779,799.27063 c 0,2.898 2.347,5.246 5.242,5.246 2.894,0 5.246,-2.348 5.246,-5.246 0,-2.895 -2.352,-5.243 -5.246,-5.243 -2.895,0 -5.242,2.348 -5.242,5.243 z" /><g
       transform="matrix(-0.75,0,0,1,-1.512209,843.1764)"
       id="g6370"><path
         inkscape:connector-curvature="0"
         id="path6372"
         style="fill:none;stroke:#000000;stroke-width:0.31577599;stroke-linecap:butt;stroke-linejoin:miter;stroke-miterlimit:4;stroke-opacity:1;stroke-dasharray:none"
         d="m -142.609,-43.906 c 0,1.414 -1.526,2.558 -3.407,2.558 -1.88,0 -3.406,-1.144 -3.406,-2.558 0,-1.41 1.526,-2.555 3.406,-2.555 1.881,0 3.407,1.145 3.407,2.555 z" /></g><path
       inkscape:connector-curvature="0"
       id="path6374"
       style="fill:#666666;fill-opacity:1;fill-rule:nonzero;stroke:none"
       d="m 65.206791,779.37163 c -2.047,2.051 -2.047,5.371 0,7.418 2.047,2.047 5.367,2.047 7.414,0 2.051,-2.047 2.051,-5.367 0,-7.418 -2.047,-2.047 -5.367,-2.047 -7.414,0 z" /><g
       transform="matrix(-0.75,-0.75,-1,1,-1.512209,843.1764)"
       id="g6376"><path
         inkscape:connector-curvature="0"
         id="path6378"
         style="fill:none;stroke:#000000;stroke-width:0.223287;stroke-linecap:butt;stroke-linejoin:miter;stroke-miterlimit:4;stroke-opacity:1;stroke-dasharray:none"
         d="m -4.477,-65.26 c 0,0.996 -1.08,1.807 -2.408,1.807 -1.334,0 -2.412,-0.809 -2.412,-1.809 0,-0.996 1.081,-1.806 2.409,-1.806 1.333,0 2.411,0.808 2.411,1.808 z" /></g><path
       inkscape:connector-curvature="0"
       id="path6380"
       style="fill:#666666;fill-opacity:1;fill-rule:nonzero;stroke:none"
       d="m 52.721791,738.75063 c -2.894,0 -5.242,2.348 -5.242,5.246 0,2.895 2.348,5.242 5.242,5.242 2.899,0 5.246,-2.347 5.246,-5.242 0,-2.898 -2.347,-5.246 -5.246,-5.246 z" /><g
       transform="matrix(0,-0.75,-1,0,-1.512209,843.1764)"
       id="g6382"><path
         inkscape:connector-curvature="0"
         id="path6384"
         style="fill:none;stroke:#000000;stroke-width:0.31577599;stroke-linecap:butt;stroke-linejoin:miter;stroke-miterlimit:4;stroke-opacity:1;stroke-dasharray:none"
         d="m 135.651,-54.234 c 0,1.41 -1.526,2.554 -3.411,2.554 -1.881,0 -3.407,-1.144 -3.407,-2.554 0,-1.414 1.526,-2.559 3.407,-2.559 1.885,0 3.411,1.145 3.411,2.559 z" /></g><path
       inkscape:connector-curvature="0"
       id="path6386"
       style="fill:#666666;fill-opacity:1;fill-rule:nonzero;stroke:none"
       d="m 72.620791,701.19963 c -2.047,-2.047 -5.367,-2.047 -7.414,0 -2.047,2.051 -2.047,5.371 0,7.418 2.047,2.047 5.367,2.047 7.414,0 2.051,-2.047 2.051,-5.367 0,-7.418 z" /><g
       transform="matrix(0.75,-0.75,-1,-1,-1.512209,843.1764)"
       id="g6388"><path
         inkscape:connector-curvature="0"
         id="path6390"
         style="fill:none;stroke:#000000;stroke-width:0.223287;stroke-linecap:butt;stroke-linejoin:miter;stroke-miterlimit:4;stroke-opacity:1;stroke-dasharray:none"
         d="m 141.539,33.92 c 0,1 -1.078,1.809 -2.411,1.809 -1.331,-0.002 -2.409,-0.811 -2.409,-1.807 0,-1 1.078,-1.809 2.411,-1.809 1.328,0 2.406,0.809 2.409,1.807 z" /></g><path
       style="fill:none;stroke:#000000;stroke-width:0.29297858;stroke-linecap:butt;stroke-linejoin:miter;stroke-miterlimit:4;stroke-opacity:1;stroke-dasharray:none"
       d="m 239.87392,798.77634 29.61728,0 0,-28.9819 0,-28.9819 0,-28.98189 0,-28.98181 -29.61728,0 -29.61719,0 0,37.67643 0,28.98182 0,28.98189 0,20.28736 z"
       id="path4357"
       inkscape:connector-curvature="0" /><path
       sodipodi:type="arc"
       style="fill:none;stroke:#000000;stroke-width:0.35433072;stroke-miterlimit:4;stroke-opacity:1;stroke-dasharray:none"
       id="path4359"
       sodipodi:cx="999.21259"
       sodipodi:cy="1054.311"
       sodipodi:rx="7.0866141"
       sodipodi:ry="7.0866141"
       d="m 1006.2992,1054.311 c 0,3.9139 -3.1728,7.0866 -7.08661,7.0866 -3.91383,0 -7.08662,-3.1727 -7.08662,-7.0866 0,-3.9138 3.17279,-7.0866 7.08662,-7.0866 3.91381,0 7.08661,3.1728 7.08661,7.0866 z"
       transform="matrix(0.78048781,0,0,-0.78048781,-554.17246,1633.2801)" /><path
       sodipodi:type="arc"
       style="fill:none;stroke:#000000;stroke-width:0.35433072;stroke-miterlimit:4;stroke-opacity:1;stroke-dasharray:none"
       id="path4359-9"
       sodipodi:cx="999.21259"
       sodipodi:cy="1054.311"
       sodipodi:rx="7.0866141"
       sodipodi:ry="7.0866141"
       d="m 1006.2992,1054.311 c 0,3.9139 -3.1728,7.0866 -7.08661,7.0866 -3.91383,0 -7.08662,-3.1727 -7.08662,-7.0866 0,-3.9138 3.17279,-7.0866 7.08662,-7.0866 3.91381,0 7.08661,3.1728 7.08661,7.0866 z"
       transform="matrix(0.78048781,0,0,-0.78048781,-525.826,1633.2801)" /><path
       sodipodi:type="arc"
       style="fill:none;stroke:#000000;stroke-width:0.35433072;stroke-miterlimit:4;stroke-opacity:1;stroke-dasharray:none"
       id="path4359-6"
       sodipodi:cx="999.21259"
       sodipodi:cy="1054.311"
       sodipodi:rx="7.0866141"
       sodipodi:ry="7.0866141"
       d="m 1006.2992,1054.311 c 0,3.9139 -3.1728,7.0866 -7.08661,7.0866 -3.91383,0 -7.08662,-3.1727 -7.08662,-7.0866 0,-3.9138 3.17279,-7.0866 7.08662,-7.0866 3.91381,0 7.08661,3.1728 7.08661,7.0866 z"
       transform="matrix(0.78048781,0,0,-0.78048781,-554.17246,1495.7998)" /><path
       sodipodi:type="arc"
       style="fill:none;stroke:#000000;stroke-width:0.35433072;stroke-miterlimit:4;stroke-opacity:1;stroke-dasharray:none"
       id="path4359-9-3"
       sodipodi:cx="999.21259"
       sodipodi:cy="1054.311"
       sodipodi:rx="7.0866141"
       sodipodi:ry="7.0866141"
       d="m 1006.2992,1054.311 c 0,3.9139 -3.1728,7.0866 -7.08661,7.0866 -3.91383,0 -7.08662,-3.1727 -7.08662,-7.0866 0,-3.9138 3.17279,-7.0866 7.08662,-7.0866 3.91381,0 7.08661,3.1728 7.08661,7.0866 z"
       transform="matrix(0.78048781,0,0,-0.78048781,-525.82601,1495.7998)" /><path
       sodipodi:type="arc"
       style="fill:none;stroke:#000000;stroke-width:0.11251977;stroke-miterlimit:4;stroke-opacity:1;stroke-dasharray:none"
       id="path7231"
       sodipodi:cx="140"
       sodipodi:cy="127.36218"
       sodipodi:rx="5"
       sodipodi:ry="5"
       d="m 145,127.36218 a 5,5 0 1 1 -10,0 5,5 0 1 1 10,0 z"
       transform="matrix(2.5156715,0,0,-2.5228182,-244.19298,1065.3125)" /></g></svg>