<?xml version="1.0" encoding="UTF-8" standalone="no"?>
<!-- Created with Inkscape (http://www.inkscape.org/) -->

<svg
   xmlns:dc="http://purl.org/dc/elements/1.1/"
   xmlns:cc="http://creativecommons.org/ns#"
   xmlns:rdf="http://www.w3.org/1999/02/22-rdf-syntax-ns#"
   xmlns:svg="http://www.w3.org/2000/svg"
   xmlns="http://www.w3.org/2000/svg"
   xmlns:sodipodi="http://sodipodi.sourceforge.net/DTD/sodipodi-0.dtd"
   xmlns:inkscape="http://www.inkscape.org/namespaces/inkscape"
   width="1488.189"
   height="1052.3622"
   id="svg5617"
   version="1.1"
   inkscape:version="0.48.4 r9939"
   sodipodi:docname="turntable_top.pdf">
  <defs
     id="defs5619" />
  <sodipodi:namedview
     id="base"
     pagecolor="#ffffff"
     bordercolor="#666666"
     borderopacity="1.0"
     inkscape:pageopacity="0.0"
     inkscape:pageshadow="2"
     inkscape:zoom="0.5"
     inkscape:cx="782.75792"
     inkscape:cy="632.40656"
     inkscape:document-units="mm"
     inkscape:current-layer="layer1"
     showgrid="true"
     units="mm"
     showguides="true"
     inkscape:guide-bbox="true"
     inkscape:window-width="1366"
     inkscape:window-height="744"
     inkscape:window-x="0"
     inkscape:window-y="24"
     inkscape:window-maximized="1">
    <inkscape:grid
       type="xygrid"
       id="grid5625"
       empspacing="5"
       visible="true"
       enabled="true"
       snapvisiblegridlinesonly="true"
       units="mm"
       spacingx="1mm"
       spacingy="1mm" />
    <sodipodi:guide
       orientation="1,0"
       position="549.2126,531.49606"
       id="guide6137" />
    <sodipodi:guide
       orientation="0,1"
       position="549.2126,531.49606"
       id="guide6139" />
  </sodipodi:namedview>
  <metadata
     id="metadata5622">
    <rdf:RDF>
      <cc:Work
         rdf:about="">
        <dc:format>image/svg+xml</dc:format>
        <dc:type
           rdf:resource="http://purl.org/dc/dcmitype/StillImage" />
        <dc:title></dc:title>
      </cc:Work>
    </rdf:RDF>
  </metadata>
  <g
     inkscape:label="Layer 1"
     inkscape:groupmode="layer"
     id="layer1"
     transform="translate(0,1.1956816e-4)">
    <path
       sodipodi:type="arc"
       style="fill:none;stroke:#000000;stroke-width:0.1173716;stroke-miterlimit:4;stroke-opacity:1;stroke-dasharray:none"
       id="path5627"
       sodipodi:cx="549.21259"
       sodipodi:cy="449.99997"
       sodipodi:rx="194.8819"
       sodipodi:ry="124.01575"
       d="m 744.09448,449.99997 a 194.8819,124.01575 0 1 1 -389.76379,0 194.8819,124.01575 0 1 1 389.76379,0 z"
       transform="matrix(2.5444939,0,0,3.9984906,-848.25548,-1278.4546)" />
    <path
       inkscape:connector-curvature="0"
       id="path6340"
       style="fill:#666666;fill-opacity:1;fill-rule:nonzero;stroke:none"
       d="m 555.77043,589.96288 c 0,3.61875 -2.94,6.5525 -6.5575,6.5525 -3.61875,0 -6.5525,-2.93375 -6.5525,-6.5525 0,-3.6225 2.93375,-6.5575 6.5525,-6.5575 3.6175,0 6.5575,2.935 6.5575,6.5575 z" />
    <g
       transform="matrix(0.9375,0,0,1.25,412.32293,396.89192)"
       id="g6346">
      <path
         inkscape:connector-curvature="0"
         id="path6348"
         style="fill:none;stroke:#000000;stroke-width:0.31577599;stroke-linecap:butt;stroke-linejoin:miter;stroke-miterlimit:4;stroke-opacity:1;stroke-dasharray:none"
         d="m 149.422,154.457 c 0,1.41 -1.526,2.555 -3.406,2.555 -1.881,0 -3.407,-1.145 -3.407,-2.555 0,-1.41 1.526,-2.555 3.407,-2.555 1.88,0 3.406,1.145 3.406,2.555 z" />
    </g>
    <path
       inkscape:connector-curvature="0"
       id="path6350"
       style="fill:#666666;fill-opacity:1;fill-rule:nonzero;stroke:none"
       d="m 602.70419,565.09038 c 2.5625,2.55875 2.5625,6.70875 0,9.2725 -2.55875,2.55875 -6.70875,2.55875 -9.2675,0 -2.56375,-2.56375 -2.56375,-6.71375 0,-9.2725 2.55875,-2.55875 6.70875,-2.55875 9.2675,0 z" />
    <g
       transform="matrix(0.9375,-0.9375,1.25,1.25,412.32293,396.89192)"
       id="g6352">
      <path
         inkscape:connector-curvature="0"
         id="path6354"
         style="fill:none;stroke:#000000;stroke-width:0.223287;stroke-linecap:butt;stroke-linejoin:miter;stroke-miterlimit:4;stroke-opacity:1;stroke-dasharray:none"
         d="m 9.297,143.434 c 0,0.996 -1.078,1.804 -2.409,1.806 -1.333,0 -2.411,-0.808 -2.411,-1.808 0.002,-0.998 1.08,-1.807 2.408,-1.807 1.334,0 2.412,0.809 2.412,1.809 z" />
    </g>
    <path
       inkscape:connector-curvature="0"
       id="path6356"
       style="fill:#666666;fill-opacity:1;fill-rule:nonzero;stroke:none"
       d="m 618.30919,514.31413 c 3.61875,0 6.5525,2.93375 6.5525,6.5525 0,3.6225 -2.93375,6.5575 -6.5525,6.5575 -3.6225,0 -6.5575,-2.935 -6.5575,-6.5575 0,-3.61875 2.935,-6.5525 6.5575,-6.5525 z" />
    <g
       transform="matrix(0,-0.9375,1.25,0,412.32293,396.89192)"
       id="g6358">
      <path
         inkscape:connector-curvature="0"
         id="path6360"
         style="fill:none;stroke:#000000;stroke-width:0.31577599;stroke-linecap:butt;stroke-linejoin:miter;stroke-miterlimit:4;stroke-opacity:1;stroke-dasharray:none"
         d="m -128.833,164.789 c 0,1.41 -1.526,2.555 -3.407,2.555 -1.885,0 -3.411,-1.145 -3.411,-2.555 0,-1.414 1.526,-2.559 3.411,-2.559 1.881,0 3.407,1.145 3.407,2.559 z" />
    </g>
    <path
       inkscape:connector-curvature="0"
       id="path6362"
       style="fill:#666666;fill-opacity:1;fill-rule:nonzero;stroke:none"
       d="m 593.43669,467.37538 c 2.55875,-2.55875 6.70875,-2.55875 9.2675,0 2.5625,2.55875 2.5625,6.70875 0,9.2725 -2.55875,2.55875 -6.70875,2.55875 -9.2675,0 -2.56375,-2.56375 -2.56375,-6.71375 0,-9.2725 z" />
    <g
       transform="matrix(-0.9375,-0.9375,1.25,-1.25,412.32293,396.89192)"
       id="g6364">
      <path
         inkscape:connector-curvature="0"
         id="path6366"
         style="fill:none;stroke:#000000;stroke-width:0.223287;stroke-linecap:butt;stroke-linejoin:miter;stroke-miterlimit:4;stroke-opacity:1;stroke-dasharray:none"
         d="m -136.719,44.25 c 0,1 -1.078,1.809 -2.411,1.809 -1.328,0 -2.409,-0.811 -2.409,-1.807 0,-1 1.078,-1.809 2.411,-1.809 1.329,0 2.409,0.811 2.409,1.807 z" />
    </g>
    <path
       inkscape:connector-curvature="0"
       id="path6368"
       style="fill:#666666;fill-opacity:1;fill-rule:nonzero;stroke:none"
       d="m 542.66043,451.77413 c 0,-3.6225 2.93375,-6.5575 6.5525,-6.5575 3.6175,0 6.5575,2.935 6.5575,6.5575 0,3.61875 -2.94,6.55375 -6.5575,6.55375 -3.61875,0 -6.5525,-2.935 -6.5525,-6.55375 z" />
    <g
       transform="matrix(-0.9375,0,0,-1.25,412.32293,396.89192)"
       id="g6370">
      <path
         inkscape:connector-curvature="0"
         id="path6372"
         style="fill:none;stroke:#000000;stroke-width:0.31577599;stroke-linecap:butt;stroke-linejoin:miter;stroke-miterlimit:4;stroke-opacity:1;stroke-dasharray:none"
         d="m -142.609,-43.906 c 0,1.414 -1.526,2.558 -3.407,2.558 -1.88,0 -3.406,-1.144 -3.406,-2.558 0,-1.41 1.526,-2.555 3.406,-2.555 1.881,0 3.407,1.145 3.407,2.555 z" />
    </g>
    <path
       inkscape:connector-curvature="0"
       id="path6374"
       style="fill:#666666;fill-opacity:1;fill-rule:nonzero;stroke:none"
       d="m 495.72168,476.64788 c -2.55875,-2.56375 -2.55875,-6.71375 0,-9.2725 2.55875,-2.55875 6.70875,-2.55875 9.2675,0 2.56375,2.55875 2.56375,6.70875 0,9.2725 -2.55875,2.55875 -6.70875,2.55875 -9.2675,0 z" />
    <g
       transform="matrix(-0.9375,0.9375,-1.25,-1.25,412.32293,396.89192)"
       id="g6376">
      <path
         inkscape:connector-curvature="0"
         id="path6378"
         style="fill:none;stroke:#000000;stroke-width:0.223287;stroke-linecap:butt;stroke-linejoin:miter;stroke-miterlimit:4;stroke-opacity:1;stroke-dasharray:none"
         d="m -4.477,-65.26 c 0,0.996 -1.08,1.807 -2.408,1.807 -1.334,0 -2.412,-0.809 -2.412,-1.809 0,-0.996 1.081,-1.806 2.409,-1.806 1.333,0 2.411,0.808 2.411,1.808 z" />
    </g>
    <path
       inkscape:connector-curvature="0"
       id="path6380"
       style="fill:#666666;fill-opacity:1;fill-rule:nonzero;stroke:none"
       d="m 480.11543,527.42413 c -3.6175,0 -6.5525,-2.935 -6.5525,-6.5575 0,-3.61875 2.935,-6.5525 6.5525,-6.5525 3.62375,0 6.5575,2.93375 6.5575,6.5525 0,3.6225 -2.93375,6.5575 -6.5575,6.5575 z" />
    <g
       transform="matrix(0,0.9375,-1.25,0,412.32293,396.89192)"
       id="g6382">
      <path
         inkscape:connector-curvature="0"
         id="path6384"
         style="fill:none;stroke:#000000;stroke-width:0.31577599;stroke-linecap:butt;stroke-linejoin:miter;stroke-miterlimit:4;stroke-opacity:1;stroke-dasharray:none"
         d="m 135.651,-54.234 c 0,1.41 -1.526,2.554 -3.411,2.554 -1.881,0 -3.407,-1.144 -3.407,-2.554 0,-1.414 1.526,-2.559 3.407,-2.559 1.885,0 3.411,1.145 3.411,2.559 z" />
    </g>
    <path
       inkscape:connector-curvature="0"
       id="path6386"
       style="fill:#666666;fill-opacity:1;fill-rule:nonzero;stroke:none"
       d="m 504.98918,574.36288 c -2.55875,2.55875 -6.70875,2.55875 -9.2675,0 -2.55875,-2.56375 -2.55875,-6.71375 0,-9.2725 2.55875,-2.55875 6.70875,-2.55875 9.2675,0 2.56375,2.55875 2.56375,6.70875 0,9.2725 z" />
    <g
       transform="matrix(0.9375,0.9375,-1.25,1.25,412.32293,396.89192)"
       id="g6388">
      <path
         inkscape:connector-curvature="0"
         id="path6390"
         style="fill:none;stroke:#000000;stroke-width:0.223287;stroke-linecap:butt;stroke-linejoin:miter;stroke-miterlimit:4;stroke-opacity:1;stroke-dasharray:none"
         d="m 141.539,33.92 c 0,1 -1.078,1.809 -2.411,1.809 -1.331,-0.002 -2.409,-0.811 -2.409,-1.807 0,-1 1.078,-1.809 2.411,-1.809 1.328,0 2.406,0.809 2.409,1.807 z" />
    </g>
    <path
       sodipodi:type="arc"
       style="fill:none;stroke:#bcbcbc;stroke-width:16.33332719999999938;stroke-miterlimit:4;stroke-opacity:1;stroke-dasharray:none"
       id="path5118-3-8"
       sodipodi:cx="1116.1417"
       sodipodi:cy="1139.3503"
       sodipodi:rx="407.48032"
       sodipodi:ry="407.48032"
       d="m 1523.622,1139.3503 a 407.48032,407.48032 0 1 1 -814.96059,0 407.48032,407.48032 0 1 1 814.96059,0 z"
       transform="matrix(1.0846862,0,0,1.0846863,-661.45095,-714.97172)" />
    <path
       sodipodi:type="arc"
       style="fill:none;stroke:#000000;stroke-width:0.35433072;stroke-miterlimit:4;stroke-opacity:1;stroke-dasharray:none"
       id="path6680"
       sodipodi:cx="559.84253"
       sodipodi:cy="531.49603"
       sodipodi:rx="10.62992"
       sodipodi:ry="10.629921"
       d="m 570.47245,531.49603 a 10.62992,10.629921 0 1 1 -21.25984,0 10.62992,10.629921 0 1 1 21.25984,0 z"
       transform="matrix(1.47541,0,0,1.4754099,-276.78467,-263.30851)" />
  </g>
</svg>
