<?xml version="1.0" encoding="UTF-8" standalone="no"?>
<!-- Created with Inkscape (http://www.inkscape.org/) -->

<svg
   xmlns:dc="http://purl.org/dc/elements/1.1/"
   xmlns:cc="http://creativecommons.org/ns#"
   xmlns:rdf="http://www.w3.org/1999/02/22-rdf-syntax-ns#"
   xmlns:svg="http://www.w3.org/2000/svg"
   xmlns="http://www.w3.org/2000/svg"
   xmlns:sodipodi="http://sodipodi.sourceforge.net/DTD/sodipodi-0.dtd"
   xmlns:inkscape="http://www.inkscape.org/namespaces/inkscape"
   width="1488.189"
   height="1052.3622"
   id="svg4515"
   version="1.1"
   inkscape:version="0.48.4 r9939"
   sodipodi:docname="turntable.pdf">
  <defs
     id="defs4517" />
  <sodipodi:namedview
     id="base"
     pagecolor="#ffffff"
     bordercolor="#666666"
     borderopacity="1.0"
     inkscape:pageopacity="0.0"
     inkscape:pageshadow="2"
     inkscape:zoom="1"
     inkscape:cx="393.2384"
     inkscape:cy="841.73606"
     inkscape:document-units="mm"
     inkscape:current-layer="layer1"
     showgrid="true"
     units="mm"
     inkscape:window-width="1366"
     inkscape:window-height="744"
     inkscape:window-x="0"
     inkscape:window-y="24"
     inkscape:window-maximized="1"
     showguides="true"
     inkscape:guide-bbox="true"
     inkscape:snap-global="true">
    <inkscape:grid
       type="xygrid"
       id="grid4523"
       empspacing="5"
       visible="true"
       enabled="true"
       snapvisiblegridlinesonly="true"
       units="mm"
       spacingx="1mm"
       spacingy="1mm" />
    <sodipodi:guide
       orientation="0,1"
       position="194.88189,1062.9921"
       id="guide5096" />
    <sodipodi:guide
       orientation="1,0"
       position="-17.716535,956.69291"
       id="guide5098" />
  </sodipodi:namedview>
  <metadata
     id="metadata4520">
    <rdf:RDF>
      <cc:Work
         rdf:about="">
        <dc:format>image/svg+xml</dc:format>
        <dc:type
           rdf:resource="http://purl.org/dc/dcmitype/StillImage" />
        <dc:title></dc:title>
      </cc:Work>
    </rdf:RDF>
  </metadata>
  <g
     inkscape:label="Layer 1"
     inkscape:groupmode="layer"
     id="layer1"
     transform="translate(0,1.1956816e-4)">
    <path
       style="fill:none;stroke:#e3e3e3;stroke-width:14.17322835;stroke-linecap:butt;stroke-linejoin:miter;stroke-miterlimit:4;stroke-opacity:1;stroke-dasharray:none"
       d="M 106.72554,361.84351 52.006748,307.12471"
       id="path3935"
       inkscape:connector-curvature="0" />
    <path
       style="fill:none;stroke:#e3e3e3;stroke-width:14.17322835;stroke-linecap:butt;stroke-linejoin:miter;stroke-miterlimit:4;stroke-opacity:1;stroke-dasharray:none"
       d="M 159.19061,361.15898 67.907809,269.87617"
       id="path3937"
       inkscape:connector-curvature="0" />
    <path
       style="fill:none;stroke:#e3e3e3;stroke-width:14.17322835;stroke-linecap:butt;stroke-linejoin:miter;stroke-miterlimit:4;stroke-opacity:1;stroke-dasharray:none"
       d="M 220.82307,369.64183 83.641501,232.46025"
       id="path3939"
       inkscape:connector-curvature="0" />
    <path
       style="fill:none;stroke:#e3e3e3;stroke-width:14.17322835;stroke-linecap:butt;stroke-linejoin:miter;stroke-miterlimit:4;stroke-opacity:1;stroke-dasharray:none"
       d="M 259.96332,355.63247 106.86739,202.53654"
       id="path3941"
       inkscape:connector-curvature="0" />
    <path
       style="fill:none;stroke:#e3e3e3;stroke-width:14.17322835;stroke-linecap:butt;stroke-linejoin:miter;stroke-miterlimit:4;stroke-opacity:1;stroke-dasharray:none"
       d="M 309.84777,352.36732 124.34908,166.86862"
       id="path3943"
       inkscape:connector-curvature="0" />
    <path
       style="fill:none;stroke:#e3e3e3;stroke-width:14.17322835;stroke-linecap:butt;stroke-linejoin:miter;stroke-miterlimit:4;stroke-opacity:1;stroke-dasharray:none"
       d="M 147.76353,137.13347 376.29946,365.6694"
       id="path3945"
       inkscape:connector-curvature="0" />
    <path
       style="fill:none;stroke:#e3e3e3;stroke-width:14.17322835;stroke-linecap:butt;stroke-linejoin:miter;stroke-miterlimit:4;stroke-opacity:1;stroke-dasharray:none"
       d="M 167.58396,103.80429 385.34517,321.56551"
       id="path3947"
       inkscape:connector-curvature="0" />
    <path
       style="fill:none;stroke:#e3e3e3;stroke-width:14.17322835;stroke-linecap:butt;stroke-linejoin:miter;stroke-miterlimit:4;stroke-opacity:1;stroke-dasharray:none"
       d="M 183.49868,66.569412 320.29659,203.36732"
       id="path3949"
       inkscape:connector-curvature="0" />
    <path
       sodipodi:type="arc"
       style="fill:#ffffff;stroke:#e0e0e0;stroke-width:8.46174616999999785;stroke-miterlimit:4;stroke-opacity:1;stroke-dasharray:none"
       id="path3951"
       sodipodi:cx="230.31496"
       sodipodi:cy="237.40155"
       sodipodi:rx="70.866142"
       sodipodi:ry="70.866142"
       d="m 301.1811,237.40155 a 70.866142,70.866142 0 1 1 -141.73229,0 70.866142,70.866142 0 1 1 141.73229,0 z"
       transform="matrix(1.2438219,0,0,1.2687671,-73.479956,-59.209652)" />
    <path
       style="fill:none;stroke:#e3e3e3;stroke-width:14.17322835;stroke-linecap:butt;stroke-linejoin:miter;stroke-miterlimit:4;stroke-opacity:1;stroke-dasharray:none"
       d="m 189.18837,19.201019 55.36934,55.369342"
       id="path3949-0"
       inkscape:connector-curvature="0" />
    <path
       style="fill:none;stroke:#000000;stroke-width:1px;stroke-linecap:butt;stroke-linejoin:miter;stroke-opacity:1"
       d="m 35.321703,344.9387 44.385347,-76.58995 15.3125,8.78125 8.82813,-15.3125 -15.40626,-8.9375 70.85938,-122.70313 15.44531,8.90625 8.88019,-15.35836 -15.36456,-8.86039 44.13281,-76.46094 43.8125,76.28125 -15.57026,8.92959 8.8437,15.3126 15.57812,-8.97656 70.99892,122.75514 -15.66298,9.0183 8.8125,15.3125 15.70313,-9.07813 44.51562,77.03125 -88.34375,0.125 0,-17.96875 -17.71875,0.0937 -0.0312,17.875 -141.72888,0.11159 0,-17.98703 -17.72186,0.0442 0.0221,17.98703 -88.829157,0.16453 z"
       id="path3873"
       inkscape:connector-curvature="0" />
    <rect
       style="fill:none;stroke:#000000;stroke-width:0.35433072;stroke-miterlimit:4;stroke-opacity:1;stroke-dasharray:none"
       id="rect4036"
       width="10.629921"
       height="10.629921"
       x="109.84252"
       y="85.039345"
       transform="translate(0,-1.1956816e-4)" />
    <rect
       style="fill:none;stroke:#000000;stroke-width:0.35433072;stroke-miterlimit:4;stroke-opacity:1;stroke-dasharray:none"
       id="rect4038"
       width="10.629921"
       height="10.629921"
       x="109.84252"
       y="109.8425"
       transform="translate(0,-1.1956816e-4)" />
    <rect
       style="fill:none;stroke:#000000;stroke-width:0.35433072;stroke-miterlimit:4;stroke-opacity:1;stroke-dasharray:none"
       id="rect4040"
       width="10.629921"
       height="10.629921"
       x="77.952759"
       y="109.8425"
       transform="translate(0,-1.1956816e-4)" />
    <rect
       style="fill:none;stroke:#000000;stroke-width:0.35433072;stroke-miterlimit:4;stroke-opacity:1;stroke-dasharray:none"
       id="rect4042"
       width="10.629921"
       height="10.629921"
       x="77.952759"
       y="85.039345"
       transform="translate(0,-1.1956816e-4)" />
    <path
       style="fill:none;stroke:#000000;stroke-width:1px;stroke-linecap:butt;stroke-linejoin:miter;stroke-opacity:1"
       d="m 425.4802,60.422885 0,53.149615 283.46456,0 0,-53.149615 -53.14961,0 0,-17.71653 -17.71653,0 0,17.71653 -141.73229,0 0,-17.71653 -17.71653,0 0,17.71653 -53.1496,0 z"
       id="path4046"
       inkscape:connector-curvature="0" />
    <path
       style="fill:none;stroke:#000000;stroke-width:1px;stroke-linecap:butt;stroke-linejoin:miter;stroke-opacity:1"
       d="m 425.90396,149.64246 0,53.14961 283.46457,0 0,-53.14961 -53.14961,0 0,-17.71653 -17.71653,0 0,17.71653 -141.73229,0 0,-17.71653 -17.71653,0 0,17.71653 -53.14961,0 z"
       id="path4046-3"
       inkscape:connector-curvature="0" />
    <path
       style="fill:none;stroke:#000000;stroke-width:1px;stroke-linecap:butt;stroke-linejoin:miter;stroke-opacity:1"
       d="m 425.19685,237.40143 0,53.14961 283.46457,0 0,-53.14961 -53.14961,0 0,-17.71653 -17.71653,0 0,17.71653 -141.73229,0 0,-17.71653 -17.71653,0 0,17.71653 -53.14961,0 z"
       id="path4046-7"
       inkscape:connector-curvature="0" />
  </g>
</svg>
